<?xml version="1.0" encoding="UTF-8" standalone="no"?>
<svg width="314px" height="29px" viewBox="0 0 314 29" version="1.1" xmlns="http://www.w3.org/2000/svg" xmlns:xlink="http://www.w3.org/1999/xlink">
    <!-- Generator: Sketch 39.1 (31720) - http://www.bohemiancoding.com/sketch -->
    <title>logo</title>
    <desc>Created with Sketch.</desc>
    <defs>
        <polygon id="path-1" points="0.0417628518 28.3409091 21.6690409 28.3409091 21.6690409 0.861766071 0.0417628518 0.861766071 0.0417628518 28.3409091"></polygon>
        <polygon id="path-3" points="0.490409411 28.3409091 24.0965573 28.3409091 24.0965573 0.861563636 0.490409411 0.861563636 0.490409411 28.3409091"></polygon>
        <polygon id="path-5" points="0.425820567 28.3409091 28.0214228 28.3409091 28.0214228 0.79500424 0.425820567 0.79500424 0.425820567 28.3409091"></polygon>
    </defs>
    <g id="Page-1" stroke="none" stroke-width="1" fill="none" fill-rule="evenodd">
        <g id="2.1_homepage-beta" transform="translate(-140.000000, -110.000000)">
            <g id="logo" transform="translate(140.000000, 110.000000)">
                <path d="M278.767211,1.58436307 L282.400113,1.58436307 C283.636851,1.58436307 284.625583,1.8194687 285.366338,2.28968701 C286.107093,2.75990532 286.477465,3.47166347 286.477465,4.42498279 C286.477465,4.82434628 286.40339,5.19471817 286.255239,5.53610955 C286.107088,5.87750092 285.90741,6.18346031 285.656197,6.45399687 C285.404985,6.72453343 285.111908,6.95641844 284.776958,7.14965884 C284.442008,7.34289924 284.081298,7.48460675 283.694817,7.5747856 L283.675493,7.65208138 C284.358276,7.81955639 284.902561,8.1029714 285.308366,8.5023349 C285.714171,8.9016984 285.91707,9.44276341 285.91707,10.1255462 C285.91707,10.846977 285.778584,11.4685576 285.501606,11.9903067 C285.224628,12.5120558 284.844594,12.9371783 284.361493,13.265687 C283.878392,13.5941957 283.311562,13.8357426 282.660986,13.9903349 C282.01041,14.1449272 281.311534,14.2222222 280.564338,14.2222222 L276.255099,14.2222222 L278.767211,1.58436307 Z M281.337296,6.87912363 C282.380794,6.87912363 283.144082,6.68588613 283.627183,6.29940532 C284.110284,5.91292452 284.351831,5.3976245 284.351831,4.75348983 C284.351831,4.26394747 284.158593,3.88391372 283.772113,3.61337715 C283.385632,3.34284059 282.786596,3.20757433 281.974986,3.20757433 L280.545014,3.20757433 L279.79138,6.87912363 L281.337296,6.87912363 Z M280.564338,12.599011 C281.607836,12.599011 282.425875,12.4057735 283.018479,12.0192926 C283.611083,11.6328118 283.90738,11.0337756 283.90738,10.2221659 C283.90738,9.64244468 283.70126,9.18511592 283.289014,8.85016588 C282.876768,8.51521585 282.264849,8.34774335 281.453239,8.34774335 L279.501521,8.34774335 L278.651268,12.599011 L280.564338,12.599011 Z M287.752845,10.4347293 C287.752845,9.54582341 287.904214,8.73744652 288.206958,8.00957433 C288.509701,7.28170215 288.909059,6.65690089 289.405042,6.1351518 C289.901026,5.61340271 290.458194,5.21082458 291.076563,4.92740532 C291.694933,4.64398606 292.313293,4.50227856 292.931662,4.50227856 C293.485618,4.50227856 293.952608,4.59245606 294.332648,4.77281377 C294.712687,4.95317148 295.021867,5.20115961 295.260197,5.5167856 C295.498527,5.83241159 295.672441,6.20278348 295.781944,6.62791236 C295.891447,7.05304125 295.946197,7.51037001 295.946197,7.99991236 C295.946197,8.41215856 295.894667,8.81151606 295.791606,9.19799687 C295.688544,9.58447768 295.604808,9.85501018 295.540394,10.0096025 L289.762535,10.0096025 C289.711004,10.5120276 289.736769,10.9435913 289.839831,11.3043067 C289.942893,11.6650221 290.100703,11.9613197 290.313268,12.1932081 C290.525832,12.4250966 290.786703,12.5957897 291.095887,12.7052926 C291.405072,12.8147955 291.740017,12.8695462 292.100732,12.8695462 C292.435682,12.8695462 292.777069,12.7922512 293.124901,12.6376588 C293.472734,12.4830665 293.775473,12.3091528 294.033127,12.1159124 L294.806085,13.4492645 C294.419604,13.719801 293.952613,13.9549067 293.405099,14.1545884 C292.857584,14.3542702 292.242445,14.4541095 291.559662,14.4541095 C290.992823,14.4541095 290.477523,14.363932 290.013746,14.1835743 C289.54997,14.0032166 289.150612,13.742346 288.815662,13.4009546 C288.480712,13.0595632 288.219841,12.640882 288.033042,12.1448983 C287.846243,11.6489146 287.752845,11.0788639 287.752845,10.4347293 L287.752845,10.4347293 Z M294.129746,8.69557433 C294.155512,8.5667474 294.178056,8.43470177 294.19738,8.29943349 C294.216704,8.16416521 294.226366,8.01923708 294.226366,7.86464476 C294.226366,7.40086779 294.113644,6.99184841 293.888197,6.63757433 C293.66275,6.28330026 293.260172,6.10616588 292.680451,6.10616588 C292.100729,6.10616588 291.556444,6.33483026 291.047577,6.79216588 C290.538711,7.2495015 290.168339,7.88396464 289.936451,8.69557433 L294.129746,8.69557433 Z M291.424394,0.366954617 L293.395437,0.366954617 L294.496901,3.16892645 L293.047606,3.16892645 L291.424394,0.366954617 Z M298.902761,6.3767011 L297.569408,6.3767011 L297.878592,4.8307856 L299.327887,4.73416588 L300.081521,2.18340532 L301.820676,2.18340532 L301.318254,4.73416588 L303.598479,4.73416588 L303.269972,6.3767011 L300.951099,6.3767011 L299.984901,11.0917433 C299.946253,11.3236318 299.92693,11.5490756 299.92693,11.7680814 C299.92693,12.1159141 300.010666,12.3767847 300.178141,12.5507011 C300.345616,12.7246175 300.629031,12.8115743 301.028394,12.8115743 C301.195869,12.8115743 301.350459,12.7858093 301.492169,12.7342786 C301.633879,12.6827478 301.775586,12.6247765 301.917296,12.5603631 L302.303775,14.0289828 C302.071886,14.1320443 301.788471,14.2286631 301.453521,14.3188419 C301.118571,14.4090208 300.732096,14.4541095 300.294085,14.4541095 C299.405179,14.4541095 298.770716,14.2318864 298.390676,13.7874335 C298.010637,13.3429806 297.82062,12.7922537 297.82062,12.1352363 C297.82062,11.9419959 297.833502,11.7551996 297.859268,11.5748419 C297.885033,11.3944842 297.910798,11.207688 297.936563,11.0144476 L298.902761,6.3767011 Z M303.907662,10.9951236 C303.907662,10.0933351 304.049369,9.24631069 304.332789,8.45402504 C304.616208,7.66173939 304.996242,6.97252562 305.472901,6.38636307 C305.949561,5.80020051 306.493847,5.33965113 307.105775,5.0047011 C307.717703,4.66975106 308.352166,4.50227856 309.009183,4.50227856 C309.47296,4.50227856 309.898083,4.62144169 310.284563,4.85977152 C310.671044,5.09810135 310.973783,5.42338448 311.192789,5.83563067 L311.231437,5.83563067 L311.637239,4.73416588 L313.299099,4.73416588 L311.405352,14.2222222 L309.704845,14.2222222 L309.801465,12.9081941 L309.743493,12.9081941 C309.292599,13.371971 308.793402,13.7455635 308.245887,14.0289828 C307.698373,14.312402 307.154087,14.4541095 306.613014,14.4541095 C305.775639,14.4541095 305.115411,14.157812 304.63231,13.5652081 C304.149209,12.9726042 303.907662,12.115918 303.907662,10.9951236 L303.907662,10.9951236 Z M307.463268,12.7536025 C307.875514,12.7536025 308.297416,12.6312188 308.728986,12.3864476 C309.160556,12.1416764 309.569576,11.7294364 309.956056,11.1497152 L310.729014,7.36222222 C310.510008,6.94997603 310.26202,6.65367852 309.985042,6.47332081 C309.708064,6.2929631 309.421429,6.2027856 309.125127,6.2027856 C308.725763,6.2027856 308.339288,6.32194873 307.96569,6.56027856 C307.592092,6.79860839 307.263588,7.12389152 306.980169,7.53613772 C306.69675,7.94838391 306.471306,8.42825704 306.303831,8.97577152 C306.136356,9.52328599 306.05262,10.0997779 306.05262,10.7052645 C306.05262,11.4009299 306.178224,11.9162299 306.429437,12.25118 C306.680649,12.58613 307.025256,12.7536025 307.463268,12.7536025 L307.463268,12.7536025 Z" id="Bèta" fill-opacity="0.77417346" fill="#FFFFFF"></path>
                <g id="Page-1" transform="translate(0.000000, 0.121753)">
                    <polygon id="Fill-1" fill="#55C6DE" points="107.523125 1.15226039 107.523125 7.0998026 115.50875 7.0998026 115.50875 28.6307961 121.499489 28.6307961 121.499489 7.0998026 129.485114 7.0998026 129.485114 1.15226039"></polygon>
                    <polygon id="Fill-2" fill="#55C6DE" points="133.472858 28.6313022 139.429133 28.6313022 139.429133 1.15276648 133.472858 1.15276648"></polygon>
                    <polygon id="Fill-3" fill="#55C6DE" points="185.903888 1.15226039 176.918793 10.1231703 176.918793 1.15226039 170.962519 1.15226039 170.962519 28.6307961 176.918793 28.6307961 176.918793 18.5586394 178.73122 16.74887 186.425924 28.6307961 193.525609 28.6307961 182.992653 12.4936849 194.390262 1.15226039"></polygon>
                    <polygon id="Fill-4" fill="#55C6DE" points="197.344072 1.15226039 197.344072 28.6307961 217.476402 28.6307961 217.476402 22.6478278 203.299333 22.6478278 203.299333 17.8480924 214.38068 17.8480924 214.38068 11.899538 203.299333 11.899538 203.299333 7.0998026 217.476402 7.0998026 217.476402 1.15226039"></polygon>
                    <polygon id="Fill-5" fill="#55C6DE" points="221.425019 1.01197289 221.425019 6.9595151 229.410643 6.9595151 229.410643 28.4915208 235.402396 28.4915208 235.402396 6.9595151 243.388021 6.9595151 243.388021 1.01197289"></polygon>
                    <g id="Group-21" transform="translate(0.000000, 0.290393)">
                        <g id="Group-8" transform="translate(245.306071, 0.000000)">
                            <mask id="mask-2" fill="white">
                                <use xlink:href="#path-1"></use>
                            </mask>
                            <g id="Clip-7"></g>
                            <path d="M16.6242505,13.0007847 L16.5259254,12.9744682 C15.9035373,12.8631289 15.3034497,12.7467287 14.7256626,12.6242555 C14.1417937,12.5007701 13.5366378,12.3722239 12.9091813,12.2376045 C12.2786839,12.1029852 11.6593368,11.974439 11.0511399,11.8509536 C10.449025,11.7274682 9.84589642,11.5989219 9.24276785,11.4653148 C6.34876441,10.8235956 6.34876441,9.54218166 6.34876441,9.12111672 C6.34876441,8.3508513 6.78159785,7.74152175 7.65537402,7.26883588 C8.55956004,6.81740568 9.62998653,6.58865406 10.838271,6.58865406 C12.1053478,6.58865406 13.1818563,6.82550308 14.0394138,7.29414026 C14.9294086,7.77593571 15.3612284,8.64843084 15.3612284,9.96223442 L15.3612284,10.5219674 L21.063074,10.5219674 L21.063074,9.96223442 C21.063074,6.77286997 19.8791175,4.3760388 17.5497235,2.83955666 C15.6004525,1.52676526 13.3430284,0.861766071 10.838271,0.861766071 C8.35581408,0.861766071 6.10954031,1.52676526 4.16432398,2.83753231 C1.80857476,4.39830666 0.613467911,6.51274091 0.613467911,9.12111672 C0.613467911,12.5908537 2.26573608,14.9725023 5.52263032,16.2012831 L5.59865493,16.2245631 C6.2017835,16.3581703 6.82721261,16.5029114 7.47494228,16.6587864 C8.13686321,16.8187101 8.79371583,16.9573781 9.42725424,17.0697295 L9.91786638,17.1486792 C10.3618501,17.2438237 10.8027928,17.3399804 11.2406946,17.4351248 C11.8630827,17.5707563 12.4814162,17.6962661 13.0936677,17.8086175 L13.3734383,17.846068 C15.9339471,18.5282742 15.9339471,19.6396427 15.9339471,20.0141476 C15.9339471,20.8947401 15.4595535,21.523301 14.4398101,21.9939625 C13.5082552,22.4281857 12.2969298,22.6478278 10.838271,22.6478278 C9.42421325,22.6478278 8.21288782,22.4170518 7.2377455,21.9615729 L7.22963621,21.973719 C6.22915236,21.482814 5.74259486,20.5779292 5.74259486,19.2074438 L5.74259486,18.6477109 L0.0417628518,18.6477109 L0.0417628518,19.2074438 C0.0417628518,22.4970136 1.33316754,24.9434414 3.87238948,26.4728383 C5.84092002,27.7117409 8.1845053,28.341314 10.838271,28.341314 C13.4666951,28.341314 15.8183897,27.7259114 17.838617,26.5062401 C20.3808799,24.9019422 21.6692436,22.7176679 21.6692436,20.0141476 C21.6692436,16.6112141 19.9723743,14.2508213 16.6242505,13.0007847" id="Fill-6" fill="#55C6DE" mask="url(#mask-2)"></path>
                        </g>
                        <g id="Group-11" transform="translate(142.926265, 0.000000)">
                            <mask id="mask-4" fill="white">
                                <use xlink:href="#path-3"></use>
                            </mask>
                            <g id="Clip-10"></g>
                            <path d="M20.8467587,19.3681773 L20.4575127,19.7487552 C18.4889822,21.6729005 16.3998259,22.6476253 14.24985,22.6476253 C12.0289177,22.6476253 10.1769582,21.866226 8.58348245,20.2538307 C6.97480172,18.6687641 6.19225508,16.8195198 6.19225508,14.6018437 C6.19225508,12.404411 6.97480172,10.5551667 8.58956441,8.94277143 C10.1546577,7.35871705 12.0066172,6.58845162 14.24985,6.58845162 C16.4221265,6.58845162 18.510269,7.55305471 20.4575127,9.45391997 L20.845745,9.83449789 L24.0722294,6.74331445 L24.0691885,4.98010503 C21.0961194,2.24723166 17.7966514,0.861563636 14.24985,0.861563636 C10.477002,0.861563636 7.19375259,2.2290125 4.49335849,4.92544756 C1.83655182,7.57734692 0.490409411,10.8335149 0.490409411,14.6018437 C0.490409411,18.3924403 1.83655182,21.65873 4.49335849,24.3106294 C7.1724657,26.9847966 10.4547015,28.3411115 14.24985,28.3411115 C18.0470258,28.3411115 21.3191249,26.9847966 23.9749179,24.308605 L24.0965573,24.1841075 L24.0965573,22.4907381 L20.8467587,19.3681773 Z" id="Fill-9" fill="#55C6DE" mask="url(#mask-4)"></path>
                        </g>
                        <polygon id="Fill-12" fill="#DB3646" points="19.399757 0.824011932 13.3735396 9.34855252 7.37975947 0.824011932 0.000304098436 0.824011932 10.393375 15.540029 10.393375 28.3035598 16.3861415 28.3035598 16.3861415 15.540029 26.780226 0.824011932"></polygon>
                        <path d="M88.363707,6.77165536 L94.3199817,6.77165536 C95.1826076,6.77165536 95.9185259,7.00951656 96.5814604,7.50447029 C97.1744524,7.9305961 97.4633459,8.4761586 97.4633459,9.17253523 C97.4633459,9.87802143 97.1825617,10.4073891 96.5723375,10.845661 C95.9185259,11.3345417 95.181594,11.5724029 94.3199817,11.5724029 L88.363707,11.5724029 L88.363707,6.77165536 Z M100.738486,18.3630872 L99.4045076,16.5037211 C99.3376059,16.4126253 99.2717179,16.3235539 99.2048163,16.2365068 C100.046155,15.7456018 100.820593,15.1079313 101.521033,14.3285563 C102.804328,12.8214273 103.454085,11.0865588 103.454085,9.17253523 C103.454085,6.78076494 102.488066,4.72908555 100.573259,3.07013019 C98.807461,1.57919594 96.7030998,0.824113149 94.3199817,0.824113149 L82.4074324,0.824113149 L82.4074324,28.303661 L88.363707,28.303661 L88.363707,17.5199451 L90.6272131,17.5199451 C92.2338665,17.5199451 93.3265935,18.0057893 93.9692549,19.0098672 L100.017773,28.303661 L107.114417,28.303661 L100.642188,18.3630872 L100.738486,18.3630872 Z" id="Fill-14" fill="#DB3646"></path>
                        <g id="Group-18" transform="translate(24.327875, 0.000000)">
                            <mask id="mask-6" fill="white">
                                <use xlink:href="#path-5"></use>
                            </mask>
                            <g id="Clip-17"></g>
                            <path d="M26.5331967,8.43263506 C26.3578333,8.08141023 26.3314781,8.05104497 26.1530737,7.71297841 C25.9249998,7.28381607 25.4718932,7.60163912 25.4718932,7.60163912 C25.4718932,7.60163912 22.3143377,9.73024383 21.7162775,10.1594062 C21.1192309,10.5885685 21.4588075,11.1290701 21.5358458,11.2849451 C22.4167176,13.0683981 22.5444389,14.9996286 21.8399442,17.1039411 C21.1293675,19.2284971 19.810594,20.7376505 17.8055716,21.7204727 C15.7660848,22.7356846 13.7610624,22.8915596 11.6749471,22.195183 C9.56855864,21.4917211 8.0602304,20.1647593 7.05974655,18.131299 C6.03797581,16.1180823 5.88187194,14.1170117 6.58636665,12.0126992 C7.28376573,9.92964237 8.61368956,8.42251331 10.6562174,7.40527711 C12.6440075,6.39816266 14.6449752,6.25342159 16.7726506,6.96396867 C17.6180442,7.24636558 18.3863996,7.6026513 19.022979,8.11582419 C19.352419,8.3820263 19.6534764,8.53182825 20.0944192,8.07230065 C21.0472609,7.08138101 22.9630811,4.90115536 23.1647997,4.66430633 C23.4283517,4.35356851 23.1272942,4.04991591 22.9569991,3.91124789 C21.6990452,2.88287776 20.2444411,2.08427143 18.5901456,1.53263588 C15.0352349,0.345354221 11.4924881,0.592325 8.05718942,2.26646299 C4.69588804,3.94161315 2.38169895,6.61375601 1.1784828,10.2090028 C-0.0247333394,13.8032373 0.215504425,17.328644 1.89311413,20.6840052 C3.58491509,24.0687195 6.26807696,26.3936862 9.86758877,27.5951383 C13.4681143,28.7965904 17.0027517,28.5455709 20.3691214,26.8501773 C23.7588053,25.1608567 26.083131,22.4927625 27.2792515,18.9187714 C28.4753721,15.3457925 28.2249977,11.8183615 26.5331967,8.43263506" id="Fill-16" fill="#DB3646" mask="url(#mask-6)"></path>
                        </g>
                        <path d="M72.5549471,0.823910714 L72.5549471,17.278845 C72.5549471,18.7181583 72.0572394,19.9256834 71.0405369,20.9611388 C69.9944383,21.9844481 68.7861539,22.4814261 67.3447273,22.4814261 C65.9033007,22.4814261 64.6950162,21.9844481 63.6570269,20.9692362 C62.6322152,19.9256834 62.1345074,18.7181583 62.1345074,17.278845 L62.1345074,0.823910714 L60.7346409,0.823910714 C60.2754523,0.823910714 59.9206708,1.0830276 59.9206708,1.0830276 L56.6688449,3.19240097 C56.6688449,3.19240097 56.3049404,3.44342045 56.3049404,3.94849594 L56.3049404,17.278845 C56.3049404,20.2647622 57.3905718,22.8862963 59.5415614,25.0806924 C61.7310701,27.2194188 64.3564533,28.3034586 67.3447273,28.3034586 C70.3563154,28.3034586 72.9928489,27.2194188 75.1914806,25.0715828 C77.3333472,22.8862963 78.4199923,20.26375 78.4199923,17.278845 L78.4199923,0.823910714 L72.5549471,0.823910714 Z" id="Fill-19" fill="#DB3646"></path>
                    </g>
                </g>
            </g>
        </g>
    </g>
</svg>