<?xml version="1.0" encoding="utf-8"?>
<!-- Generator: Adobe Illustrator 16.0.2, SVG Export Plug-In . SVG Version: 6.00 Build 0)  -->
<!DOCTYPE svg PUBLIC "-//W3C//DTD SVG 1.1//EN" "http://www.w3.org/Graphics/SVG/1.1/DTD/svg11.dtd">
<svg version="1.1" id="Layer_1" xmlns="http://www.w3.org/2000/svg" xmlns:xlink="http://www.w3.org/1999/xlink" x="0px" y="0px"
	 width="159.506px" height="58.32px" viewBox="0 0 159.506 58.32" enable-background="new 0 0 159.506 58.32" xml:space="preserve">
<polygon fill="#6AC5C9" points="2.098,37.047 9.976,37.047 9.976,58.32 15.886,58.32 15.886,37.047 23.764,37.047 23.764,31.171 
	2.098,31.171 "/>
<rect x="27.698" y="31.171" fill="#6AC5C9" width="5.876" height="27.149"/>
<polygon fill="#6AC5C9" points="79.422,31.171 70.558,40.035 70.558,31.171 64.682,31.171 64.682,58.319 70.558,58.319 
	70.558,48.368 72.347,46.58 79.937,58.319 86.94,58.319 76.55,42.377 87.794,31.171 "/>
<polygon fill="#6AC5C9" points="90.708,58.319 110.568,58.319 110.568,52.408 96.584,52.408 96.584,47.666 107.515,47.666 
	107.515,41.79 96.584,41.79 96.584,37.047 110.568,37.047 110.568,31.171 90.708,31.171 "/>
<polygon fill="#6AC5C9" points="114.465,36.909 122.343,36.909 122.343,58.182 128.253,58.182 128.253,36.909 136.131,36.909 
	136.131,31.033 114.465,31.033 "/>
<g>
	<defs>
		<rect id="SVGID_1_" x="-108.078" y="-53.685" width="375.581" height="165.685"/>
	</defs>
	<clipPath id="SVGID_2_">
		<use xlink:href="#SVGID_1_"  overflow="visible"/>
	</clipPath>
	<path clip-path="url(#SVGID_2_)" fill="#6AC5C9" d="M154.424,43.164l-0.097-0.026c-0.614-0.109-1.206-0.225-1.776-0.346
		c-0.576-0.122-1.173-0.249-1.792-0.382c-0.622-0.133-1.233-0.26-1.833-0.382c-0.594-0.122-1.188-0.249-1.784-0.381
		c-2.854-0.635-2.854-1.9-2.854-2.316c0-0.761,0.427-1.362,1.289-1.83c0.892-0.446,1.947-0.672,3.14-0.672
		c1.25,0,2.313,0.234,3.158,0.697c0.878,0.476,1.304,1.338,1.304,2.636v0.553h5.625v-0.553c0-3.151-1.168-5.52-3.466-7.037
		c-1.923-1.297-4.15-1.954-6.621-1.954c-2.449,0-4.665,0.657-6.584,1.952c-2.324,1.542-3.503,3.631-3.503,6.208
		c0,3.428,1.63,5.781,4.843,6.995l0.075,0.022c0.595,0.133,1.212,0.275,1.851,0.43c0.653,0.157,1.302,0.295,1.927,0.405l0.483,0.078
		c0.438,0.095,0.873,0.189,1.306,0.283c0.613,0.134,1.224,0.258,1.827,0.369l0.276,0.037c2.526,0.674,2.526,1.771,2.526,2.142
		c0,0.87-0.469,1.491-1.475,1.956c-0.919,0.429-2.113,0.646-3.553,0.646c-1.395,0-2.59-0.229-3.552-0.679l-0.008,0.013
		c-0.987-0.485-1.468-1.379-1.468-2.733v-0.553h-5.624v0.553c0,3.25,1.274,5.667,3.779,7.178c1.942,1.225,4.254,1.847,6.872,1.847
		c2.593,0,4.913-0.608,6.906-1.813c2.508-1.585,3.778-3.743,3.778-6.414C159.4,46.731,157.727,44.399,154.424,43.164"/>
	<path clip-path="url(#SVGID_2_)" fill="#6AC5C9" d="M57.589,49.455l-0.384,0.376c-1.942,1.9-4.003,2.863-6.124,2.863
		c-2.191,0-4.018-0.771-5.59-2.364c-1.587-1.566-2.359-3.394-2.359-5.584c0-2.171,0.772-3.998,2.365-5.591
		c1.544-1.565,3.371-2.326,5.584-2.326c2.143,0,4.203,0.953,6.124,2.831l0.383,0.376l3.183-3.055l-0.003-1.741
		c-2.933-2.7-6.188-4.069-9.687-4.069c-3.722,0-6.961,1.351-9.625,4.015c-2.621,2.62-3.949,5.837-3.949,9.561
		c0,3.745,1.328,6.972,3.949,9.592c2.642,2.642,5.881,3.981,9.625,3.981c3.746,0,6.974-1.34,9.594-3.983l0.12-0.123V52.54
		L57.589,49.455z"/>
	<path clip-path="url(#SVGID_2_)" fill="#E51425" d="M71.601,0.171v16.257c0,1.422-0.491,2.615-1.494,3.638
		c-1.032,1.011-2.224,1.502-3.646,1.502c-1.422,0-2.614-0.491-3.638-1.494c-1.011-1.031-1.502-2.224-1.502-3.646V0.171H59.94
		c-0.453,0-0.803,0.256-0.803,0.256l-3.208,2.084c0,0-0.359,0.248-0.359,0.747v13.17c0,2.95,1.071,5.54,3.193,7.708
		c2.16,2.113,4.75,3.184,7.698,3.184c2.971,0,5.572-1.071,7.741-3.193c2.113-2.159,3.185-4.75,3.185-7.699V0.171H71.601z"/>
	<polygon clip-path="url(#SVGID_2_)" fill="#E51425" points="19.162,0.134 13.217,8.556 7.304,0.134 0.024,0.134 10.277,14.673 
		10.277,27.283 16.189,27.283 16.189,14.673 26.443,0.134 	"/>
	<path clip-path="url(#SVGID_2_)" fill="#E51425" d="M99.404,17.462l-1.316-1.837c-0.065-0.09-0.131-0.178-0.196-0.264
		c0.83-0.485,1.594-1.115,2.285-1.885c1.266-1.489,1.906-3.203,1.906-5.094c0-2.363-0.952-4.39-2.842-6.029
		c-1.742-1.473-3.817-2.219-6.169-2.219H81.32v27.149h5.876V16.629h2.233c1.585,0,2.663,0.48,3.297,1.472l5.967,9.182h7.001
		l-6.385-9.821H99.404z M87.196,6.01h5.876c0.852,0,1.577,0.235,2.231,0.724c0.585,0.421,0.87,0.96,0.87,1.648
		c0,0.697-0.277,1.22-0.88,1.653c-0.645,0.483-1.371,0.718-2.222,0.718h-5.876V6.01z"/>
	<path clip-path="url(#SVGID_2_)" fill="#E61325" d="M45.218,10.168c0.555,1.066,0.842,2.235,0.842,3.54
		c0,2.202-0.757,4.02-2.317,5.559c-1.582,1.582-3.401,2.35-5.56,2.35c-2.18,0-3.997-0.768-5.561-2.352
		c-1.58-1.559-2.348-3.377-2.348-5.557c0-2.159,0.769-3.977,2.353-5.562c1.537-1.557,3.354-2.314,5.556-2.314
		c1.839,0,3.418,0.545,4.802,1.649c0.121,0.096,0.375,0.247,0.645-0.023S46.563,4.12,46.781,3.9C47,3.681,46.819,3.345,46.69,3.238
		c-2.423-2.007-5.274-3.035-8.507-3.035c-3.679,0-6.9,1.331-9.576,3.961C26,6.771,24.678,9.982,24.678,13.708
		s1.322,6.937,3.929,9.544c2.629,2.629,5.851,3.961,9.576,3.961c3.727,0,6.939-1.333,9.544-3.961
		c2.629-2.629,3.962-5.84,3.962-9.544c0-2.429-0.609-4.681-1.75-6.665c-0.066-0.114-0.251-0.31-0.613-0.072
		c-0.362,0.238-3.599,2.371-3.931,2.582C45.063,9.765,45.154,10.045,45.218,10.168"/>
</g>
</svg>
